<svg xmlns="http://www.w3.org/2000/svg" viewBox="0 0 64 64" width="64" height="64">
  <!-- Shield shape -->
  <path d="M32 4 L56 16 L56 36 Q56 52 32 60 Q8 52 8 36 L8 16 Z"
        fill="#1e293b" stroke="#f59e0b" stroke-width="2"/>
  <!-- Inner shield highlight -->
  <path d="M32 8 L52 18 L52 35 Q52 49 32 56 Q12 49 12 35 L12 18 Z"
        fill="#0f172a"/>
  <!-- Globe circle -->
  <circle cx="32" cy="32" r="14" fill="none" stroke="#f59e0b" stroke-width="1.5"/>
  <!-- Globe horizontal lines -->
  <ellipse cx="32" cy="26" rx="13.5" ry="2" fill="none" stroke="#f59e0b" stroke-width="0.8" opacity="0.6"/>
  <ellipse cx="32" cy="38" rx="13.5" ry="2" fill="none" stroke="#f59e0b" stroke-width="0.8" opacity="0.6"/>
  <!-- Globe vertical meridian -->
  <ellipse cx="32" cy="32" rx="6" ry="14" fill="none" stroke="#f59e0b" stroke-width="1"/>
  <!-- Globe center vertical line -->
  <line x1="32" y1="18" x2="32" y2="46" stroke="#f59e0b" stroke-width="0.8" opacity="0.6"/>
  <!-- Small star at top -->
  <polygon points="32,10 33.2,13 36.5,13 34,15 35,18 32,16.2 29,18 30,15 27.5,13 30.8,13"
           fill="#f59e0b"/>
</svg>
